<svg id="Layer_1" data-name="Layer 1" xmlns="http://www.w3.org/2000/svg" xmlns:xlink="http://www.w3.org/1999/xlink" viewBox="0 0 1354 313.44"><defs><style>.cls-1{fill:none;}.cls-2{clip-path:url(#clip-path);}.cls-3{fill:#919cce;}</style><clipPath id="clip-path" transform="translate(-2 -5.24)"><rect class="cls-1" x="2" y="5.24" width="1354" height="313.44"/></clipPath></defs><title>nicole-logo</title><g class="cls-2"><path class="cls-3" d="M133.17,239.57c20.3-32.47,33.45-66,44.76-102.58,3.69-11.93,6.56-24.07,9.84-37.5.88,2.09,1.23,2.8,1.49,3.55,7,20.36,14.52,40.57,22.91,60.43,6.35,15,13.36,29.7,24.45,42,3.87,4.29,8.48,6.58,14.13,4.78s7.43-6.28,7.85-11.85a704.92,704.92,0,0,1,9.67-76.21c3.16-16.91,7.05-33.61,17.64-47.74,7.89-10.52,17.65-18.22,31.38-19.42a32,32,0,0,1,24.12,7.66c7.48,6.18,14.88,12.55,24.8,14.87,21.25,5,37.06-10.78,31.42-31.82-4.15-15.48-13.87-26.45-28.73-32.59-14.48-6-29-3.93-43.58,0-42.18,11.27-70.09,36.54-80.21,80.09-3.76,16.18-7.47,32.37-10.8,50.65-3.17-7.56-5.65-13.49-8.15-19.42-9.59-22.81-15.11-47-24.16-70C197.5,43,192.83,39.07,185.35,39.85c-6.38.66-11.87,7.06-13.86,17.1-7.19,36.44-19,71.42-33.15,105.67-6.27,15.22-11.7,30.84-20.33,45-5,8.16-11.3,15.18-20.94,17.44-18.18,4.26-26.35-.32-28.54-20.4-1.11-10.2,2.26-19.63,7.1-28.53,3.23-5.94,6.49-11.86,8.52-18.36,8.67-27.73-15.53-52.29-43.47-41.15A63.13,63.13,0,0,0,7,148.58c-14.55,31.73,4.68,78.08,28.39,101.24,25.14,24.55,73.08,29.18,97.73-10.24" transform="translate(-2 -5.24)"/><path class="cls-3" d="M440.93,159.82c2.69-9,7.92-16.62,12.84-25.13,1.22,8.75,4.22,16.06,10,22a30.76,30.76,0,0,0,5.28,4.51c7.06,4.51,7,4.42,3.27,12.44-2.29,4.87-5.17,9.24-9.66,12.32-7.15,4.89-14.34,3.52-19.2-3.68-4.73-7-4.91-14.53-2.55-22.44m37.38-15.48,0,0c.19-5.1-2-8.42-6.15-11.15,0-.14,0-.25,0-.4,4.29,2.81,6.55,6.21,6.21,11.57M570.5,71.91c3.42,12.58-14.25,42.29-31.77,53.42,5.8-21.17,14-40.05,31.77-53.42M386.62,110.65c-15-3.62-43.46,3.56-52.51,20.61a68.14,68.14,0,0,0-7.76,27.35,78.25,78.25,0,0,0,.41,14.48c.51,4.31,1.27,7.82-1.28,11.72a6.19,6.19,0,0,1-4.51,2.93,6.83,6.83,0,0,1-2.63-.41,9.27,9.27,0,0,1-3.33-1.87c-8.28-7.47-2.09-23.45,1-31.92,3.45-9.59,6.21-19.34,5.8-29.69-.33-8.16-3.6-12.19-10.25-12.87-10.87-1.11-17.05,2.12-19.16,10.06a289.9,289.9,0,0,0-8.48,50.64c-.85,10.36.7,20.49,9.79,27.46,11.05,8.48,23.43,6.78,36-4.73,2-1.85,3.25-3.93,6.41-.75,10.87,10.91,24.4,12.84,38.85,9.83,14.08-2.95,24.8-11.39,33.9-22.29,14.16,30.26,50,32.72,71,8.95,6.21-7,12-14.37,14.94-23.38a4.82,4.82,0,0,1,5.44-3.71c2.21.14,5.1.42,5,3.21-.34,19.59-2.41,39,.1,58.69,1.69,13.18,5.6,25.66,14.42,36,12.71,14.92,28.68,21.93,48.08,16.89,18.5-4.8,27.3-18.76,30.81-36.66a29.35,29.35,0,0,0-3-20.3c-4.55-8.31-14.41-13.2-22.92-11.52-7.9,1.56-13,7.88-14.7,17.86-1,5.69,1.06,10.78,2.72,16,.93,2.92,2.36,6.47-1.23,8.59s-7.12,1.1-9.93-1.59a27.89,27.89,0,0,1-4.94-6.53,76.32,76.32,0,0,1-7.66-21.39c-2-9.38-2.54-19-2.67-28.57-.09-7-1-14-.17-21,.32-2.82.21-5.43,1.31-8.09A32.79,32.79,0,0,1,540,157c4.75-6.07,10.77-11.14,15.92-16.88a146.68,146.68,0,0,0,15.48-20.83c8.79-14.2,17.9-28.33,19.52-45.64,1-10.55-3.09-18.7-12.09-24-7.92-4.68-15.51-2.21-22.64,2.38-13.87,8.93-22.68,21.95-29.42,36.62a219.4,219.4,0,0,0-11,29.92c-1.54,5.26-2.92,10.56-4.17,15.89-.85,3.63-1.93,7.63-5.83,9.14a15,15,0,0,1-6.33.59,2.53,2.53,0,0,1-1.92-.7A3,3,0,0,1,497,142c-.59-4.87-4.37-10.76-7.56-14.4A26.69,26.69,0,0,0,478.57,120a23.45,23.45,0,0,0-12.31-1c-1.38.27-10.91,3.22-10.49,5.22-2.4-11.31-9.75-15-20.1-10a43.89,43.89,0,0,0-10.88,7.62c-8.32,7.75-13.1,17.49-16.47,28.17-4.75,15.06-14.22,26.52-28.45,33.23-15.43,7.27-28.91-1.11-30.14-18a39.1,39.1,0,0,1,.1-8.88c1.66-10.49,6.27-19.28,15.74-24.84,3.28-1.93,6.87-2.7,9.92.34,3.27,3.26,2.47,6.91.2,10.42-1.26,2-2.82,3.74-3.88,5.79-4.75,9.16.18,18.29,10.44,19.6,8.13,1,14.38-2,18.29-9.7,6.28-12.38,6-24.85-.68-37.06a19.94,19.94,0,0,0-13.23-10.15" transform="translate(-2 -5.24)"/><path class="cls-3" d="M963.53,161.5c-.42-6.35,6.36-17,12.29-19.35,4.8-1.88,9,.57,9,5.24,0,6-13.23,17.29-19.43,16.7-1.87-.18-1.75-1.34-1.83-2.59m-66.83,11c-.31,2.63-.31,2.63-6.65,2.15a87.19,87.19,0,0,0-22.2-.89c-2.47.25-3.49-.18-3.14-2.85.9-6.73,1.75-13.48,5.77-19.25,3.66-5.27,8.2-6.3,13.74-3.29,7.77,4.21,13.51,15.32,12.48,24.14M869,198c-2.45-.86-5.44-1.9-5.18-4.66.22-2.33,3.38-2.78,5.6-3.24,6.89-1.43,13.78-.41,21.28.19-5.11,7.52-13.9,10.45-21.69,7.71m241.88,31.4c-3.31-.38-5.13,1.63-6.45,4.18a21,21,0,0,0-1.6,4.8c-1.22,5.27-4.28,8.94-9.71,9.54s-8.48-3.15-10.67-7.52c-4.41-8.79-5.15-18.17-4.38-27.82,1.81-22.6,7-44.76,8.72-67.38,1.13-14.71-8.24-25-23-24.38a44,44,0,0,0-24.21,8.57c0-1.64,0-2.69,0-3.74-.5-8.92-4.69-13.87-11.64-13.79-8.78.1-14.72,5.45-15.31,13.9-.61,8.66-1.69,17.35-1.53,26,.26,14-5.61,25.39-14.06,35.76A33.17,33.17,0,0,1,982.8,198c-6.67,2.47-13.36-.54-16.38-6.87-3.41-7.15,1.67-9,6.46-11.61,12.18-6.69,22.09-15.76,27.46-28.88,6.38-15.61-3.15-30.63-19.61-31a37.1,37.1,0,0,0-20,5c-16.51,9.62-25.52,24.23-28.83,42.67-.66,3.64-1.84,5.4-6,5.1-4.68-.34-2.55-3.52-2.81-5.55-.32-2.5,0-5.08-.09-7.63-.83-32.49-29.45-49-58-33.44-3.46,1.88-6.72,4.14-10.23,6.3-.76-3.65.55-6.7.74-9.85.42-6.76-2.38-10-9-10.23-4.86-.15-9.75-.15-14.51,1.16-7.57,2.09-10.15,5.17-10.54,13q-2.64,53-5.22,106-1.76,34.9-3.72,69.79c-.24,4.45,0,8.42,4.92,10.58a78.68,78.68,0,0,0,23.18,6.15c5,.57,7.35-1.83,7.7-6.88,1.89-27.52,1.56-55.08,1.56-82.64,0-6.07,0-12.14,0-18.76a15.85,15.85,0,0,1,1.93.74c25.16,15.33,55.82,5.81,67.47-21,.49-1.12.42-2.41,2.1-2.75,3.83-.77,9.55,2.76,10.71,6.74,3.59,12.22,11.56,20,23.94,22.9,13.43,3.16,25.53-.51,36.75-7.88,6.21-4.08,11-9.72,16.39-16.13.42,6.19.45,11.41,1.18,16.53.94,6.54,4.75,9,11.28,7.89,8.48-1.41,11.58-5.18,12.48-14.88,1.22-13.29,2.46-26.57,3.84-39.84.75-7.32,3-14.15,8.38-19.44s11.35-3.57,13.59,3.54a15.17,15.17,0,0,1,.22,7.52c-2.57,13.72-5.54,27.37-7.53,41.18-2.3,16-1.48,31.71,7,46.18,8.67,14.8,34.23,21.19,48.79,12.13,7.39-4.6,11.05-12.88,8.51-19.34-1.08-2.73-2.87-4.65-6-5" transform="translate(-2 -5.24)"/><path class="cls-3" d="M852,56.57C850,45.44,844.7,34.92,837.64,26,824.47,9.4,806.24,2.56,785.5,6.19c-34.38,6-61.62,39.41-52.82,76.46,4.28,18,11.5,34.84,18.87,51.66C762,158,782,190.5,767.4,216.77c-3.89,7-11.39,12.09-19.4,12.31-11.33.32-31.18-12.86-26.5-26.12,1.4-4,2.64-8,4.31-11.9a53.88,53.88,0,0,0,3.59-32.26c-4.32-22.66-22.58-32.16-43.15-21.87-19.52,9.77-27,26.46-26.21,47.58s5.65,40.74,18.37,57.7c19.37,25.84,46.48,34.82,77.63,33,29-1.65,41.32-18.64,46.85-41.46,6.31-26.05,4-51.71-6.5-76.49-6.61-15.56-16.07-29.76-21.73-45.77-6.77-19.14-9.24-38.29.37-57.25,4.75-9.36,11.33-16.88,22.34-19.07,6.52-1.29,14.23,2.07,16.81,7.48,3,6.23-.48,10.53-4.73,14.39-4.86,4.41-10.31,8.26-14.72,13.07a24.89,24.89,0,0,0,12.24,41.33c26,6.57,46.61-24,45.89-47.17a53.65,53.65,0,0,0-.81-7.76" transform="translate(-2 -5.24)"/><path class="cls-3" d="M1205.19,159.83c-1.91-.33-1.78-1.51-1.57-2.72,1.26-7.55,4.35-14,11.05-18.3a7.89,7.89,0,0,1,7.85-.52c2.09,1,2.87,3,2.59,5.31-.3,6.1-14.09,17.24-19.92,16.22m147.2,71.11c-2.56-5.74-6.81-9-13.2-9.24-12.23-.46-20.22,10.13-16.69,22.38,1.34,4.66,3.48,9.09,4.67,13.77,1.4,5.53-.41,10.07-5.81,12.64s-9.47.09-12.65-4.1a41.75,41.75,0,0,1-4.81-8.18c-11.17-25-10.54-50.19-.61-75.26,5.68-14.33,12.33-28.27,18.32-42.49,2.3-5.45,3.45-11.33-2-15.75-5.22-4.27-10.25-1.88-15.12,1.35s-10,6.17-16,7.34c-4.18.82-6.45.61-5.84-4.7a26.59,26.59,0,0,0-4.43-17.54c-3.73-5.86-8.89-8.84-16-8.1s-11.8,4.76-14.05,11.2c-3.43,9.83-2.3,19.19,4.4,27.52,5.56,6.91,6.16,14.32,1.55,21.79a69.2,69.2,0,0,1-23.87,23.32,16.59,16.59,0,0,1-15.24,1.39c-4.11-1.64-5.64-5.25-6.25-8.93-.54-3.26,3.28-3.24,5.25-4.41,12-7.09,21.95-16,26.89-29.4,5.54-15-3.11-28.93-18.92-30.2a34.58,34.58,0,0,0-19,4c-26.08,13.73-26.71,41.72-46,61.47-7.55,7.74-18,13.38-28.77,12.69a20.66,20.66,0,0,1-12.2-4.56c-5-4.33-6.9-11.38-6.75-18a38.32,38.32,0,0,1,8.19-22.58c2.94-3.75,11.32-11.94,16.63-7.53,2.78,2.31,3,5.61,1.62,8.71-1.44,3.27-3.68,6.19-5.08,9.47-4,9.5,1.55,18.79,11.76,19.92,7.36.81,13.49-2.31,17.09-9.55,6.53-13.17,6.36-26.54,0-39.75-3.28-6.8-9-10.45-16.33-11.81-18.43-3.46-42.47,9.59-49.37,27.09a83.48,83.48,0,0,0-4.74,42.5c2,14.18,10.49,23.94,24.32,28.14,15.47,4.7,29.23.29,41.54-9.45a117.88,117.88,0,0,0,17-16.51c5.26,15.47,15.67,23.37,30.87,24.33,12.12.76,23.29-2.63,33.75-9.08,17.87-11,30.13-26.3,37.37-45.87.59-1.6.38-5,3.69-4,5.57,1.67,10.71.37,15.82-1.91,1.25,3-.77,4.7-1.77,6.63-13.27,25.68-23.72,52.05-19.56,81.87,2.1,15,5.42,29.58,17.36,40.5,15.68,14.35,39.49,15.38,53,2.11,13-12.78,17.41-36.44,10-53.13" transform="translate(-2 -5.24)"/><path class="cls-3" d="M594.18,149.42c1.19-7.35,4.19-13.68,10.61-17.9,3.06-2,6.45-2.5,9.29.19,3.1,2.95,1.81,6.27-.37,9.09-4.35,5.63-9.78,9.8-16.88,11.37-2.61.68-3-.76-2.65-2.75m-30.4,0c-3.3,11.41-3.19,11.65-15.53,10.21-4.67-.54-5.56,1.58-5.42,5.3.21,5.5,4.91,9.9,12.69,11.27,4.07.71,6.18,1.86,7.47,6.58,3.46,12.65,12.19,20.5,25.31,22.83,22.24,4,46.67-10.7,56.11-33.59a43.33,43.33,0,0,0,3.25-18.57c-.09-2.19-.79-4.62-3-5.09-2.77-.58-3.28,2.07-3.8,4.09-1.8,6.87-5.67,12.65-9.45,18.52a39.53,39.53,0,0,1-16.3,14.66c-7.86,3.77-15.93.29-18.37-7.55-1.24-4-.58-6.68,3.65-8.57a61.77,61.77,0,0,0,19.56-13.9c7.11-7.51,12.82-15.77,13-23.06-.06-13.56-6.27-21.58-15.91-23.94-7.71-1.88-15.18-.7-22.23,2.63-16.39,7.75-26,21.14-30.94,38.18" transform="translate(-2 -5.24)"/><path class="cls-3" d="M326,81.37c-.06-6.06-4.85-11.19-10.53-11.29-7.15-.13-13.56,7-13.31,14.87.2,6.15,4.78,10.3,11.26,10.21,7.28-.1,12.66-6,12.58-13.79" transform="translate(-2 -5.24)"/></g></svg>